<svg width="327" height="49" viewBox="0 0 327 49" fill="none" xmlns="http://www.w3.org/2000/svg">
<g clip-path="url(#clip0_2_2)">
<path d="M8.15 41V8.15H29.3V14.45H14.81V21.74H28.13V28.04H14.9V41H8.15ZM34.9074 41V8.15H45.4824C47.8224 8.15 49.8474 8.555 51.5574 9.365C53.2674 10.175 54.5874 11.33 55.5174 12.83C56.4774 14.33 56.9574 16.1 56.9574 18.14C56.9574 20.27 56.4324 22.175 55.3824 23.855C54.3624 25.535 52.9674 26.75 51.1974 27.5L57.4074 41H50.0724L44.7624 28.58H41.6124V41H34.9074ZM41.6124 22.73H45.4824C46.9824 22.73 48.1374 22.355 48.9474 21.605C49.7874 20.855 50.2074 19.805 50.2074 18.455C50.2074 17.045 49.7874 15.95 48.9474 15.17C48.1374 14.39 46.9824 14 45.4824 14H41.6124V22.73ZM60.0898 41L68.1448 8.15H76.6948L84.8398 41H77.9548L76.3798 33.575H68.5498L66.9748 41H60.0898ZM69.6748 28.175H75.2098L73.6348 20.255C73.4248 19.115 73.1998 17.99 72.9598 16.88C72.7498 15.74 72.5848 14.855 72.4648 14.225C72.3448 14.855 72.1798 15.725 71.9698 16.835C71.7898 17.945 71.5798 19.07 71.3398 20.21L69.6748 28.175ZM99.6273 41.45C97.4373 41.45 95.5173 41.045 93.8673 40.235C92.2173 39.395 90.9273 38.24 89.9973 36.77C89.0973 35.27 88.6473 33.53 88.6473 31.55V17.6C88.6473 15.59 89.0973 13.85 89.9973 12.38C90.9273 10.91 92.2173 9.77 93.8673 8.96C95.5173 8.12 97.4373 7.7 99.6273 7.7C101.847 7.7 103.767 8.12 105.387 8.96C107.037 9.77 108.312 10.91 109.212 12.38C110.142 13.85 110.607 15.59 110.607 17.6H103.857C103.857 16.28 103.482 15.275 102.732 14.585C102.012 13.895 100.977 13.55 99.6273 13.55C98.2773 13.55 97.2273 13.895 96.4773 14.585C95.7573 15.275 95.3973 16.28 95.3973 17.6V31.55C95.3973 32.84 95.7573 33.845 96.4773 34.565C97.2273 35.255 98.2773 35.6 99.6273 35.6C100.977 35.6 102.012 35.255 102.732 34.565C103.482 33.845 103.857 32.84 103.857 31.55V28.715H98.9973V23H110.607V31.55C110.607 33.53 110.142 35.27 109.212 36.77C108.312 38.24 107.037 39.395 105.387 40.235C103.767 41.045 101.847 41.45 99.6273 41.45ZM114.82 41V8.15H122.425L125.44 18.5C125.77 19.58 126.01 20.525 126.16 21.335C126.34 22.145 126.445 22.715 126.475 23.045C126.505 22.715 126.595 22.145 126.745 21.335C126.925 20.525 127.165 19.58 127.465 18.5L130.435 8.15H138.04V41H131.875V32C131.875 30.35 131.905 28.625 131.965 26.825C132.055 24.995 132.16 23.18 132.28 21.38C132.4 19.58 132.535 17.9 132.685 16.34C132.835 14.75 132.97 13.37 133.09 12.2L129.31 27.05H123.595L119.635 12.2C119.785 13.31 119.935 14.645 120.085 16.205C120.235 17.735 120.37 19.4 120.49 21.2C120.64 22.97 120.76 24.785 120.85 26.645C120.94 28.505 120.985 30.29 120.985 32V41H114.82ZM143.512 41V8.15H163.762V13.91H150.127V21.29H162.187V27.05H150.127V35.24H163.762V41H143.512ZM169.595 41V8.15H177.47L185.975 33.575C185.885 32.465 185.78 31.19 185.66 29.75C185.54 28.28 185.435 26.825 185.345 25.385C185.285 23.915 185.255 22.67 185.255 21.65V8.15H191.195V41H183.32L174.905 15.575C174.995 16.535 175.085 17.675 175.175 18.995C175.265 20.315 175.34 21.65 175.4 23C175.49 24.35 175.535 25.55 175.535 26.6V41H169.595ZM204.002 41V14.45H195.677V8.15H219.077V14.45H210.752V41H204.002Z" fill="black"/>
<path d="M238.003 22.6271V25.3118H224.388V22.6271H238.003Z" fill="#A6A6A6"/>
<path d="M245.87 41V8.15H250.01L254.105 19.94C254.405 20.72 254.69 21.545 254.96 22.415C255.23 23.255 255.44 23.93 255.59 24.44C255.74 23.93 255.95 23.255 256.22 22.415C256.49 21.545 256.745 20.72 256.985 19.94L261.035 8.15H265.13V41H262.25V24.35C262.25 23.15 262.265 21.875 262.295 20.525C262.355 19.145 262.415 17.78 262.475 16.43C262.565 15.08 262.64 13.82 262.7 12.65C262.79 11.48 262.865 10.475 262.925 9.635L257.12 26.465H253.97L248.075 9.635C248.165 10.475 248.24 11.465 248.3 12.605C248.39 13.745 248.465 14.99 248.525 16.34C248.585 17.66 248.63 19.01 248.66 20.39C248.72 21.77 248.75 23.09 248.75 24.35V41H245.87ZM273.572 41V8.15H277.577L288.827 37.625C288.767 36.965 288.707 36.2 288.647 35.33C288.617 34.46 288.587 33.605 288.557 32.765C288.527 31.925 288.512 31.22 288.512 30.65V8.15H291.392V41H287.387L276.227 11.525C276.257 11.975 276.287 12.575 276.317 13.325C276.347 14.075 276.377 14.9 276.407 15.8C276.437 16.7 276.452 17.6 276.452 18.5V41H273.572ZM300.6 41V8.15H310.635C312.585 8.15 314.28 8.54 315.72 9.32C317.19 10.07 318.315 11.15 319.095 12.56C319.905 13.94 320.31 15.59 320.31 17.51C320.31 19.4 319.905 21.05 319.095 22.46C318.315 23.84 317.19 24.92 315.72 25.7C314.28 26.48 312.585 26.87 310.635 26.87H303.57V41H300.6ZM303.57 24.17H310.635C312.645 24.17 314.25 23.57 315.45 22.37C316.68 21.14 317.295 19.52 317.295 17.51C317.295 15.44 316.695 13.82 315.495 12.65C314.295 11.45 312.675 10.85 310.635 10.85H303.57V24.17Z" fill="black"/>
</g>
<defs>
<clipPath id="clip0_2_2">
<rect width="327" height="49" fill="white"/>
</clipPath>
</defs>
</svg>
