<svg width="179" height="106" viewBox="0 0 179 106" fill="none" xmlns="http://www.w3.org/2000/svg">
<rect y="101" width="11" height="4" fill="#CED4E9"/>
<rect x="60" y="5" width="11" height="100" fill="#CED4E9"/>
<rect x="120" y="83" width="11" height="22" fill="#CED4E9"/>
<rect x="12" y="83" width="11" height="22" fill="#CED4E9"/>
<rect x="72" y="15" width="11" height="90" fill="#CED4E9"/>
<rect x="132" y="93" width="11" height="12" fill="#CED4E9"/>
<rect x="24" y="42" width="11" height="63" fill="#CED4E9"/>
<rect x="84" y="34" width="11" height="71" fill="#CED4E9"/>
<rect x="144" y="98" width="11" height="7" fill="#CED4E9"/>
<rect x="36" y="11" width="11" height="94" fill="#CED4E9"/>
<rect x="96" y="54" width="11" height="51" fill="#CED4E9"/>
<rect x="156" y="101" width="11" height="4" fill="#CED4E9"/>
<rect x="48" y="1" width="11" height="104" fill="#CED4E9"/>
<rect x="108" y="69" width="11" height="36" fill="#CED4E9"/>
<rect width="11" height="1" transform="matrix(1 0 0 -1 168 105)" fill="#CED4E9"/>
<path d="M0 104.5C29 104.5 24.5 1 56 1C87.5 1 105 104.5 179 104.5" stroke="#615780" stroke-width="2"/>
</svg>
